<svg width="18" height="19" viewBox="0 0 18 19" fill="none" xmlns="http://www.w3.org/2000/svg">
<g clip-path="url(#clip0_240_204)">
<path d="M8.99996 4.0625C10.3275 4.0625 11.5162 4.52 12.4537 5.4125L15.0225 2.84375C13.4625 1.3925 11.4262 0.5 8.99996 0.5C5.48246 0.5 2.44121 2.5175 0.959961 5.4575L3.95246 7.77875C4.66121 5.645 6.65246 4.0625 8.99996 4.0625Z" fill="#EA4335"/>
<path d="M17.6175 9.70625C17.6175 9.1175 17.5612 8.5475 17.475 8H9V11.3825H13.8525C13.635 12.4925 13.005 13.4375 12.06 14.075L14.9588 16.325C16.65 14.7575 17.6175 12.44 17.6175 9.70625Z" fill="#4285F4"/>
<path d="M3.94875 11.2213C3.76875 10.6775 3.66375 10.1 3.66375 9.50002C3.66375 8.90002 3.765 8.32252 3.94875 7.77877L0.95625 5.45752C0.345 6.67252 0 8.04502 0 9.50002C0 10.955 0.345 12.3275 0.96 13.5425L3.94875 11.2213Z" fill="#FBBC05"/>
<path d="M9.00005 18.4998C11.43 18.4998 13.4738 17.701 14.9588 16.321L12.06 14.071C11.2538 14.6148 10.215 14.9335 9.00005 14.9335C6.65255 14.9335 4.6613 13.351 3.9488 11.2173L0.956299 13.5385C2.4413 16.4823 5.48255 18.4998 9.00005 18.4998Z" fill="#34A853"/>
</g>
<defs>
<clipPath id="clip0_240_204">
<rect width="18" height="18" fill="white" transform="translate(0 0.5)"/>
</clipPath>
</defs>
</svg>
