<svg width="32" height="33" viewBox="0 0 32 33" fill="none" xmlns="http://www.w3.org/2000/svg">
<path d="M0 16.5C0 23.3307 4.28133 29.1627 10.3067 31.4573C10.16 30.208 10.004 28.148 10.34 26.7027C10.6293 25.46 12.208 18.7853 12.208 18.7853C12.208 18.7853 11.732 17.832 11.732 16.42C11.732 14.2067 13.0147 12.5533 14.6133 12.5533C15.9733 12.5533 16.6293 13.5733 16.6293 14.796C16.6293 16.1627 15.7587 18.2053 15.3093 20.1C14.9347 21.6853 16.1053 22.9787 17.668 22.9787C20.4987 22.9787 22.676 19.9933 22.676 15.684C22.676 11.8693 19.9347 9.204 16.0213 9.204C11.4907 9.204 8.83067 12.6027 8.83067 16.116C8.83067 17.4853 9.35733 18.952 10.016 19.7507C10.0722 19.811 10.1118 19.8847 10.1312 19.9648C10.1506 20.0449 10.149 20.1287 10.1267 20.208C10.0053 20.712 9.736 21.7933 9.684 22.0147C9.61333 22.3053 9.45333 22.368 9.15067 22.2267C7.16133 21.3013 5.91867 18.3933 5.91867 16.0573C5.91867 11.032 9.568 6.41867 16.4413 6.41867C21.9667 6.41867 26.2613 10.356 26.2613 15.6173C26.2613 21.1067 22.8013 25.5253 17.996 25.5253C16.3813 25.5253 14.8653 24.6853 14.3453 23.6947C14.3453 23.6947 13.5467 26.7373 13.3533 27.4813C12.9773 28.9267 11.9347 30.756 11.288 31.7947C12.7787 32.2533 14.36 32.5 16 32.5C24.836 32.5 32 25.336 32 16.5C32 7.664 24.836 0.5 16 0.5C7.164 0.5 0 7.664 0 16.5Z" fill="#E60023"/>
</svg>
