<svg width="137" height="36" viewBox="0 0 137 36" fill="none" xmlns="http://www.w3.org/2000/svg">
<g clip-path="url(#clip0_240_238)">
<path d="M12 16.5C12 23.3307 16.2813 29.1627 22.3067 31.4573C22.16 30.208 22.004 28.148 22.34 26.7027C22.6293 25.46 24.208 18.7853 24.208 18.7853C24.208 18.7853 23.732 17.832 23.732 16.42C23.732 14.2067 25.0147 12.5533 26.6133 12.5533C27.9733 12.5533 28.6293 13.5733 28.6293 14.796C28.6293 16.1627 27.7587 18.2053 27.3093 20.1C26.9347 21.6853 28.1053 22.9787 29.668 22.9787C32.4987 22.9787 34.676 19.9933 34.676 15.684C34.676 11.8693 31.9347 9.204 28.0213 9.204C23.4907 9.204 20.8307 12.6027 20.8307 16.116C20.8307 17.4853 21.3573 18.952 22.016 19.7507C22.0722 19.811 22.1118 19.8847 22.1312 19.9648C22.1506 20.0449 22.149 20.1287 22.1267 20.208C22.0053 20.712 21.736 21.7933 21.684 22.0147C21.6133 22.3053 21.4533 22.368 21.1507 22.2267C19.1613 21.3013 17.9187 18.3933 17.9187 16.0573C17.9187 11.032 21.568 6.41867 28.4413 6.41867C33.9667 6.41867 38.2613 10.356 38.2613 15.6173C38.2613 21.1067 34.8013 25.5253 29.996 25.5253C28.3813 25.5253 26.8653 24.6853 26.3453 23.6947C26.3453 23.6947 25.5467 26.7373 25.3533 27.4813C24.9773 28.9267 23.9347 30.756 23.288 31.7947C24.7787 32.2533 26.36 32.5 28 32.5C36.836 32.5 44 25.336 44 16.5C44 7.664 36.836 0.5 28 0.5C19.164 0.5 12 7.664 12 16.5Z" fill="#E60023"/>
</g>
<path d="M54.8262 17.8145H51.1641V15.7051H54.8262C55.4251 15.7051 55.9102 15.6074 56.2812 15.4121C56.6589 15.2103 56.9355 14.9368 57.1113 14.5918C57.2871 14.2402 57.375 13.8398 57.375 13.3906C57.375 12.9544 57.2871 12.5475 57.1113 12.1699C56.9355 11.7923 56.6589 11.4863 56.2812 11.252C55.9102 11.0176 55.4251 10.9004 54.8262 10.9004H52.043V23H49.3574V8.78125H54.8262C55.9329 8.78125 56.877 8.97982 57.6582 9.37695C58.446 9.76758 59.0449 10.3112 59.4551 11.0078C59.8717 11.6979 60.0801 12.4857 60.0801 13.3711C60.0801 14.2891 59.8717 15.0801 59.4551 15.7441C59.0449 16.4082 58.446 16.9193 57.6582 17.2773C56.877 17.6354 55.9329 17.8145 54.8262 17.8145ZM63.7285 12.4336V23H61.1406V12.4336H63.7285ZM60.9648 9.66992C60.9648 9.28581 61.0951 8.9668 61.3555 8.71289C61.6224 8.45898 61.9805 8.33203 62.4297 8.33203C62.8789 8.33203 63.2337 8.45898 63.4941 8.71289C63.7611 8.9668 63.8945 9.28581 63.8945 9.66992C63.8945 10.0475 63.7611 10.3633 63.4941 10.6172C63.2337 10.8711 62.8789 10.998 62.4297 10.998C61.9805 10.998 61.6224 10.8711 61.3555 10.6172C61.0951 10.3633 60.9648 10.0475 60.9648 9.66992ZM67.7188 14.6895V23H65.1406V12.4336H67.5625L67.7188 14.6895ZM67.3086 17.3359H66.5469C66.5534 16.5677 66.6576 15.8711 66.8594 15.2461C67.0612 14.6211 67.3444 14.084 67.709 13.6348C68.0801 13.1855 68.5195 12.8405 69.0273 12.5996C69.5352 12.3587 70.1016 12.2383 70.7266 12.2383C71.2344 12.2383 71.6934 12.3099 72.1035 12.4531C72.5137 12.5964 72.8652 12.8242 73.1582 13.1367C73.4577 13.4492 73.6855 13.8594 73.8418 14.3672C74.0046 14.8685 74.0859 15.487 74.0859 16.2227V23H71.4883V16.2031C71.4883 15.7214 71.4167 15.3405 71.2734 15.0605C71.1367 14.7806 70.9349 14.582 70.668 14.4648C70.4076 14.3477 70.0853 14.2891 69.7012 14.2891C69.304 14.2891 68.9557 14.3704 68.6562 14.5332C68.3633 14.6895 68.1159 14.9076 67.9141 15.1875C67.7188 15.4674 67.569 15.7897 67.4648 16.1543C67.3607 16.5189 67.3086 16.9128 67.3086 17.3359ZM80.3613 12.4336V14.2891H74.3066V12.4336H80.3613ZM75.9277 9.83594H78.5156V19.9531C78.5156 20.2656 78.5579 20.5065 78.6426 20.6758C78.7272 20.8451 78.8542 20.959 79.0234 21.0176C79.1927 21.0762 79.3945 21.1055 79.6289 21.1055C79.7982 21.1055 79.9544 21.0957 80.0977 21.0762C80.2409 21.0566 80.3613 21.0371 80.459 21.0176L80.4688 22.9512C80.2539 23.0228 80.0098 23.0814 79.7363 23.127C79.4694 23.1725 79.1667 23.1953 78.8281 23.1953C78.2487 23.1953 77.7409 23.0977 77.3047 22.9023C76.8685 22.7005 76.5299 22.3783 76.2891 21.9355C76.0482 21.4863 75.9277 20.8939 75.9277 20.1582V9.83594ZM85.8262 23.1953C85.0254 23.1953 84.306 23.0651 83.668 22.8047C83.0299 22.5443 82.4863 22.1829 82.0371 21.7207C81.5944 21.252 81.2526 20.7083 81.0117 20.0898C80.7773 19.4648 80.6602 18.7943 80.6602 18.0781V17.6875C80.6602 16.8737 80.7773 16.1348 81.0117 15.4707C81.2461 14.8001 81.5781 14.224 82.0078 13.7422C82.4375 13.2604 82.9518 12.8893 83.5508 12.6289C84.1497 12.3685 84.8105 12.2383 85.5332 12.2383C86.2819 12.2383 86.9427 12.3652 87.5156 12.6191C88.0885 12.8665 88.5671 13.2181 88.9512 13.6738C89.3353 14.1296 89.625 14.6764 89.8203 15.3145C90.0156 15.946 90.1133 16.6458 90.1133 17.4141V18.498H81.832V16.7207H87.5742V16.5254C87.5612 16.1152 87.4831 15.7409 87.3398 15.4023C87.1966 15.0573 86.9753 14.7839 86.6758 14.582C86.3763 14.3737 85.9889 14.2695 85.5137 14.2695C85.1296 14.2695 84.7943 14.3542 84.5078 14.5234C84.2279 14.6862 83.9935 14.9206 83.8047 15.2266C83.6224 15.526 83.4857 15.8841 83.3945 16.3008C83.3034 16.7174 83.2578 17.1797 83.2578 17.6875V18.0781C83.2578 18.5208 83.3164 18.931 83.4336 19.3086C83.5573 19.6862 83.7363 20.015 83.9707 20.2949C84.2116 20.5684 84.498 20.7832 84.8301 20.9395C85.1686 21.0892 85.5527 21.1641 85.9824 21.1641C86.5228 21.1641 87.0111 21.0599 87.4473 20.8516C87.89 20.6367 88.2741 20.321 88.5996 19.9043L89.8984 21.252C89.6771 21.5775 89.3776 21.89 89 22.1895C88.6289 22.4889 88.1797 22.7331 87.6523 22.9219C87.125 23.1042 86.5163 23.1953 85.8262 23.1953ZM93.4199 14.5918V23H90.8418V12.4336H93.2832L93.4199 14.5918ZM96.6328 12.3652L96.5938 14.7676C96.4505 14.7415 96.2878 14.722 96.1055 14.709C95.9297 14.696 95.7637 14.6895 95.6074 14.6895C95.2103 14.6895 94.862 14.7448 94.5625 14.8555C94.263 14.9596 94.0124 15.1126 93.8105 15.3145C93.6152 15.5163 93.4655 15.7637 93.3613 16.0566C93.2572 16.3431 93.1986 16.6686 93.1855 17.0332L92.6289 16.9648C92.6289 16.2943 92.6973 15.6725 92.834 15.0996C92.9707 14.5267 93.1693 14.0254 93.4297 13.5957C93.6901 13.166 94.0156 12.834 94.4062 12.5996C94.8034 12.3587 95.2591 12.2383 95.7734 12.2383C95.9167 12.2383 96.0697 12.2513 96.2324 12.2773C96.4017 12.2969 96.5352 12.3262 96.6328 12.3652ZM101.6 23.1953C100.799 23.1953 100.079 23.0651 99.4414 22.8047C98.8034 22.5443 98.2598 22.1829 97.8105 21.7207C97.3678 21.252 97.026 20.7083 96.7852 20.0898C96.5508 19.4648 96.4336 18.7943 96.4336 18.0781V17.6875C96.4336 16.8737 96.5508 16.1348 96.7852 15.4707C97.0195 14.8001 97.3516 14.224 97.7812 13.7422C98.2109 13.2604 98.7253 12.8893 99.3242 12.6289C99.9232 12.3685 100.584 12.2383 101.307 12.2383C102.055 12.2383 102.716 12.3652 103.289 12.6191C103.862 12.8665 104.34 13.2181 104.725 13.6738C105.109 14.1296 105.398 14.6764 105.594 15.3145C105.789 15.946 105.887 16.6458 105.887 17.4141V18.498H97.6055V16.7207H103.348V16.5254C103.335 16.1152 103.257 15.7409 103.113 15.4023C102.97 15.0573 102.749 14.7839 102.449 14.582C102.15 14.3737 101.762 14.2695 101.287 14.2695C100.903 14.2695 100.568 14.3542 100.281 14.5234C100.001 14.6862 99.7669 14.9206 99.5781 15.2266C99.3958 15.526 99.2591 15.8841 99.168 16.3008C99.0768 16.7174 99.0312 17.1797 99.0312 17.6875V18.0781C99.0312 18.5208 99.0898 18.931 99.207 19.3086C99.3307 19.6862 99.5098 20.015 99.7441 20.2949C99.985 20.5684 100.271 20.7832 100.604 20.9395C100.942 21.0892 101.326 21.1641 101.756 21.1641C102.296 21.1641 102.785 21.0599 103.221 20.8516C103.663 20.6367 104.048 20.321 104.373 19.9043L105.672 21.252C105.451 21.5775 105.151 21.89 104.773 22.1895C104.402 22.4889 103.953 22.7331 103.426 22.9219C102.898 23.1042 102.29 23.1953 101.6 23.1953ZM112.426 20.1094C112.426 19.888 112.367 19.6895 112.25 19.5137C112.133 19.3379 111.911 19.1784 111.586 19.0352C111.267 18.8854 110.798 18.7454 110.18 18.6152C109.633 18.498 109.128 18.3516 108.666 18.1758C108.204 18 107.807 17.7884 107.475 17.541C107.143 17.2871 106.882 16.9909 106.693 16.6523C106.511 16.3073 106.42 15.9102 106.42 15.4609C106.42 15.0247 106.514 14.6146 106.703 14.2305C106.892 13.8398 107.165 13.498 107.523 13.2051C107.882 12.9056 108.318 12.6712 108.832 12.502C109.346 12.3262 109.926 12.2383 110.57 12.2383C111.469 12.2383 112.24 12.3848 112.885 12.6777C113.536 12.9707 114.034 13.3743 114.379 13.8887C114.724 14.3965 114.896 14.9694 114.896 15.6074H112.318C112.318 15.3275 112.253 15.0736 112.123 14.8457C111.999 14.6178 111.807 14.4355 111.547 14.2988C111.286 14.1556 110.958 14.084 110.561 14.084C110.202 14.084 109.9 14.1426 109.652 14.2598C109.411 14.377 109.229 14.5299 109.105 14.7188C108.982 14.9076 108.92 15.1159 108.92 15.3438C108.92 15.513 108.952 15.666 109.018 15.8027C109.089 15.9329 109.203 16.0534 109.359 16.1641C109.516 16.2747 109.727 16.3757 109.994 16.4668C110.268 16.5579 110.603 16.6458 111 16.7305C111.788 16.8867 112.475 17.0951 113.061 17.3555C113.653 17.6094 114.115 17.9479 114.447 18.3711C114.779 18.7943 114.945 19.3346 114.945 19.9922C114.945 20.4609 114.844 20.8906 114.643 21.2812C114.441 21.6654 114.148 22.0007 113.764 22.2871C113.38 22.5736 112.921 22.7982 112.387 22.9609C111.853 23.1172 111.251 23.1953 110.58 23.1953C109.61 23.1953 108.79 23.0228 108.119 22.6777C107.449 22.3262 106.941 21.8835 106.596 21.3496C106.251 20.8092 106.078 20.2493 106.078 19.6699H108.549C108.568 20.0801 108.679 20.4089 108.881 20.6562C109.083 20.9036 109.337 21.0827 109.643 21.1934C109.955 21.2975 110.284 21.3496 110.629 21.3496C111.02 21.3496 111.348 21.2975 111.615 21.1934C111.882 21.0827 112.084 20.9362 112.221 20.7539C112.357 20.5651 112.426 20.3503 112.426 20.1094ZM120.908 12.4336V14.2891H114.854V12.4336H120.908ZM116.475 9.83594H119.062V19.9531C119.062 20.2656 119.105 20.5065 119.189 20.6758C119.274 20.8451 119.401 20.959 119.57 21.0176C119.74 21.0762 119.941 21.1055 120.176 21.1055C120.345 21.1055 120.501 21.0957 120.645 21.0762C120.788 21.0566 120.908 21.0371 121.006 21.0176L121.016 22.9512C120.801 23.0228 120.557 23.0814 120.283 23.127C120.016 23.1725 119.714 23.1953 119.375 23.1953C118.796 23.1953 118.288 23.0977 117.852 22.9023C117.415 22.7005 117.077 22.3783 116.836 21.9355C116.595 21.4863 116.475 20.8939 116.475 20.1582V9.83594Z" fill="#CC0000"/>
<defs>
<clipPath id="clip0_240_238">
<rect width="32" height="32" fill="white" transform="translate(12 0.5)"/>
</clipPath>
</defs>
</svg>
